<?xml version="1.0" encoding="utf-8"?>
<!-- Generator: Adobe Illustrator 22.1.0, SVG Export Plug-In . SVG Version: 6.00 Build 0)  -->
<svg version="1.1" id="logo" xmlns="http://www.w3.org/2000/svg" xmlns:xlink="http://www.w3.org/1999/xlink" x="0px" y="0px"
	 viewBox="0 0 141.7 141.7" style="enable-background:new 0 0 141.7 141.7;" xml:space="preserve">
<style type="text/css">
	.st0{fill:#FFFFFF;}
</style>
<g>
	<path class="st0" d="M107.4,72.9c6,5.5,9.2,11.7,9.2,19.7c0,15.2-13.8,25.9-34.3,25.9H47.6l-15.6-14V23.2h50.5
		c19.7,0,32.1,13.3,32.1,30.7C114.6,58.2,113.1,66.8,107.4,72.9z M46.7,59.3v-23h33c11.2,0,19.9,6.4,19.9,17.6
		c0,3.3-1.2,6.8-3.1,9.5l8.2,7.2c4.8-5.2,6.4-11.2,6.4-16.8c0-16.2-11.7-27.3-28.7-27.3H35.3v75.5h42.1c14.4,0,22.5-8,22.5-20.8
		c0-7.5-3.4-13.6-8.4-16.8c2.8-2.5,4.8-6.3,4.8-10.6c0-8.5-6.4-14.2-16.3-14.2H52.8l11.1,9.8h16c3.4,0,5.2,2.8,5.2,4.9
		c0,2.5-2,4.9-5.2,4.9H46.7z M105.2,75.5L101,72c1.4,2.9,2.2,6.3,2.2,9.5c0,15.7-10.7,24-25.3,24H38l11.1,9.8H82
		c20.1,0,31.3-10.8,31.3-22.6C113.3,86.3,111.1,80.8,105.2,75.5z M46.7,69.1h30c6.8,0,11.8,4.9,11.8,11.5c0,6.3-4.3,11.5-11.8,11.5
		h-30V69.1z M50.1,56h11.4v-3.9L50.1,41.7V56z M61.5,88.9v-4.1L50.1,74.5v14.4H61.5z M52.8,72.4l11.1,9.8h21.3c0-0.5,0.1-1,0.1-1.6
		c0-5-3.6-8.2-8.2-8.2H52.8z M64.8,56H80c1,0,1.6-0.9,1.6-1.6c0-1-0.7-1.6-1.6-1.6H64.8V56z M83.7,85.6H64.8v3.3H77
		C80.2,88.9,82.4,87.6,83.7,85.6z"/>
</g>
</svg>
